<?xml version="1.0" encoding="utf-8"?>
<!-- Generator: Adobe Illustrator 21.1.0, SVG Export Plug-In . SVG Version: 6.00 Build 0)  -->
<svg version="1.1" id="Capa_1" xmlns="http://www.w3.org/2000/svg" xmlns:xlink="http://www.w3.org/1999/xlink" x="0px" y="0px"
	 viewBox="0 0 169 94" style="enable-background:new 0 0 169 94;" xml:space="preserve">
<style type="text/css">
	.st0{fill:#5FA82C;}
	.st1{clip-path:url(#SVGID_4_);fill:#FFFFFF;}
	.st2{clip-path:url(#SVGID_7_);fill:#FFFFFF;}
	.st3{clip-path:url(#SVGID_9_);fill:#FFFFFF;}
	.st4{fill:#007982;}
	.st5{clip-path:url(#SVGID_11_);fill:#FFFFFF;}
	.st6{clip-path:url(#SVGID_13_);fill:#FFFFFF;}
	.st7{clip-path:url(#SVGID_15_);fill:#FFFFFF;}
	.st8{clip-path:url(#SVGID_17_);fill:#FFFFFF;}
	.st9{fill:#006BAC;}
	.st10{clip-path:url(#SVGID_19_);fill:#FFFFFF;}
	.st11{clip-path:url(#SVGID_21_);fill:#FFFFFF;}
</style>
<g>
	<path d="M95.4,81.7V74h4c2.5,0,4.3,1.1,4.3,3.9s-1.8,3.9-4.3,3.9L95.4,81.7L95.4,81.7z M93.9,90.8h1.6V83h4.1c3.9,0,5.7-2,5.7-5.2
		c0-3.1-1.9-5.2-5.7-5.2h-5.7V90.8L93.9,90.8z"/>
	<path d="M107.5,83.1c0-3.1,1.2-6.2,4.5-6.2s4.5,3.1,4.5,6.2c0,4.5-1.7,6.7-4.5,6.7S107.5,87.5,107.5,83.1L107.5,83.1z M105.9,83.4
		c0,3.8,1.7,7.7,6.1,7.7c4.3,0,6.1-4,6.1-7.7c0-3-1.1-7.9-6.1-7.9S105.9,80.4,105.9,83.4L105.9,83.4z"/>
	<path d="M120.4,90.8h1.5V79.9c1.3-1.4,2.7-3,4.8-3c1.9,0,2.6,1.1,2.6,2.8v11.1h1.5V79.4c0-3.5-2.9-3.9-3.7-3.9
		c-2.2,0-3.7,1.5-5.1,2.9v-2.6h-1.5L120.4,90.8L120.4,90.8z"/>
	<path d="M142.4,78.8c-0.8-2.2-2.1-3.3-4.5-3.3c-3,0-4.7,1.9-4.7,4c0,2.2,1.4,3.2,3.5,4l1.9,0.7c1.5,0.5,2.6,1.1,2.6,2.8
		c0,1.7-1,2.9-3.5,2.9c-1.9,0-3.1-0.9-3.7-2.9l-1.4,0.5c0.5,2,2.1,3.8,5.2,3.8c3.7,0,5-2.1,5-4.2c0-2.5-1.6-3.4-4.1-4.3l-1.7-0.6
		c-1.5-0.5-2.2-1.1-2.2-2.6c0-1.2,0.9-2.5,3.1-2.5c1.2,0,2.5,0.4,3.2,2.4L142.4,78.8L142.4,78.8z"/>
	<polygon points="93.8,50 93.8,68.1 95.4,68.1 95.4,51.4 95.5,51.4 101.8,68.1 103.1,68.1 109.6,51.5 109.6,51.4 109.6,68.1 
		111.2,68.1 111.2,50 108.5,50 102.6,65.4 96.7,50 	"/>
	<path d="M115.3,57c0.6-1.2,1.3-2.8,3.6-2.8c3.3,0,3.4,2.3,3.5,4.9h-1c-3.9,0-8.1,0.6-8.1,5.1c0,2.4,1.5,4.2,4.2,4.2
		c2.3,0,3.7-1.4,4.9-2.7l0.1,2.4h1.5c0-0.3-0.1-2.3-0.1-3.7v-6.5c0-2.5-0.9-5.2-4.8-5.2c-2.9,0-4.4,1.7-5.1,3.7L115.3,57L115.3,57z
		 M122.4,64.2c-1.8,1.8-2.8,2.8-4.7,2.8c-1.4,0-2.9-0.7-2.9-2.9c0-3.2,2.8-3.7,6.5-3.7h1v3.8H122.4z"/>
	<path d="M126.6,68.1h1.5V57.5c1.7-2.3,2.5-2.8,5-2.9V53c-2.5,0-3.2,0.9-5,2.8v-2.7h-1.5V68.1L126.6,68.1z"/>
	<path d="M144.5,56.6c-0.8-1.8-2.1-3.7-4.7-3.7c-3.5,0-6,3.1-6,7.5c0,3.3,0.9,8.1,5.9,8.1c2.8,0,4.1-2.2,4.8-3.6l-1.4-0.5
		c-0.5,1.3-1.8,2.8-3.7,2.8c-2.5,0-4.1-2.4-4.1-6.5c0-5.6,2.8-6.4,4.2-6.4c1.6,0,2.7,0.7,3.6,2.8L144.5,56.6L144.5,56.6z"/>
	<path d="M147,53.1v15h1.5v-15H147L147,53.1z M148.6,48.3h-1.7v2h1.7V48.3L148.6,48.3z"/>
	<path d="M152.7,57c0.6-1.2,1.3-2.8,3.6-2.8c3.3,0,3.4,2.3,3.5,4.9h-1c-3.9,0-8.1,0.6-8.1,5.1c0,2.4,1.5,4.2,4.2,4.2
		c2.3,0,3.7-1.4,4.9-2.7l0.1,2.4h1.5c0-0.3-0.1-2.3-0.1-3.7v-6.5c0-2.5-0.9-5.2-4.8-5.2c-2.9,0-4.4,1.7-5.1,3.7L152.7,57L152.7,57z
		 M159.8,64.2C158,66,157,67,155.1,67c-1.4,0-2.9-0.7-2.9-2.9c0-3.2,2.8-3.7,6.5-3.7h1v3.8H159.8z"/>
	<polygon points="164.3,68.1 165.8,68.1 165.8,48.3 164.3,48.3 	"/>
	<g>
		<g>
			<path id="SVGID_1_" class="st0" d="M59.8,59c0-6.3,5.1-11.3,11.3-11.3c6.3,0,11.3,5.1,11.3,11.3s-5.1,11.3-11.3,11.3
				C64.9,70.4,59.8,65.3,59.8,59L59.8,59z"/>
		</g>
		<g>
			<defs>
				<path id="SVGID_2_" d="M59.8,59c0-6.3,5.1-11.3,11.3-11.3c6.3,0,11.3,5.1,11.3,11.3s-5.1,11.3-11.3,11.3
					C64.9,70.4,59.8,65.3,59.8,59L59.8,59z"/>
			</defs>
			<clipPath id="SVGID_4_">
				<use xlink:href="#SVGID_2_"  style="overflow:visible;"/>
			</clipPath>
			<path class="st1" d="M62.3,56.8h-1.5v0.3h4.6v-0.3h-1.5V43.2c-0.4,0.4-1,0.5-1.6,0.5h-1.5V44h1.5V56.8L62.3,56.8z"/>
		</g>
		<g>
			<defs>
				<path id="SVGID_6_" d="M59.8,59c0-6.3,5.1-11.3,11.3-11.3c6.3,0,11.3,5.1,11.3,11.3s-5.1,11.3-11.3,11.3
					C64.9,70.4,59.8,65.3,59.8,59L59.8,59z"/>
			</defs>
			<clipPath id="SVGID_7_">
				<use xlink:href="#SVGID_6_"  style="overflow:visible;"/>
			</clipPath>
			<path class="st2" d="M70.3,56.8h-1.9v0.3h5.7v-0.3h-1.9v-6c0.4,0.2,1.1,0.3,1.8,0.3c2.3,0,4.8-1,4.8-3.7s-2.2-3.7-5-3.7h-5.4V44
				h1.9V56.8L70.3,56.8z M72.3,44.1h1.2c2.3,0,3.4,1.1,3.4,3.6c0,2.6-1.8,3.2-3.1,3.2c-0.6,0-1.2-0.2-1.5-0.4V44.1L72.3,44.1z"/>
		</g>
		<g>
			<defs>
				<path id="SVGID_8_" d="M59.8,59c0-6.3,5.1-11.3,11.3-11.3c6.3,0,11.3,5.1,11.3,11.3s-5.1,11.3-11.3,11.3
					C64.9,70.4,59.8,65.3,59.8,59L59.8,59z"/>
			</defs>
			<clipPath id="SVGID_9_">
				<use xlink:href="#SVGID_8_"  style="overflow:visible;"/>
			</clipPath>
			<path class="st3" d="M78,53.1c0,2.2,1.6,4.2,4,4.2s4-2,4-4.2s-1.6-4.2-4-4.2S78,51,78,53.1L78,53.1z M84.2,53.9
				c0,1.6-0.1,3.2-2.2,3.2s-2.2-1.5-2.2-3.2v-1.5c0-1.6,0.1-3.2,2.2-3.2s2.2,1.5,2.2,3.2V53.9L84.2,53.9z"/>
		</g>
	</g>
	<g>
		<g>
			<path id="SVGID_3_" class="st4" d="M32.6,59c0-6.3,5.1-11.3,11.3-11.3c6.3,0,11.3,5.1,11.3,11.3s-5.1,11.3-11.3,11.3
				C37.7,70.4,32.6,65.3,32.6,59L32.6,59z"/>
		</g>
		<g>
			<defs>
				<path id="SVGID_10_" d="M32.6,59c0-6.3,5.1-11.3,11.3-11.3c6.3,0,11.3,5.1,11.3,11.3s-5.1,11.3-11.3,11.3
					C37.7,70.4,32.6,65.3,32.6,59L32.6,59z"/>
			</defs>
			<clipPath id="SVGID_11_">
				<use xlink:href="#SVGID_10_"  style="overflow:visible;"/>
			</clipPath>
			<path class="st5" d="M33.7,56.8h-1.6v0.3H37v-0.3h-1.7v-3.9c0-2.5,1.4-3.7,2.2-3.7c0.1,0,0.2,0,0.3,0.1c-0.2,0.1-0.4,0.4-0.4,0.8
				c0,0.5,0.2,0.8,0.8,0.8c0.6,0,0.9-0.4,0.9-0.9c0-0.7-0.5-1.1-1.3-1.1c-1.6,0-2.2,1.4-2.4,2.2l0,0v-2.2c-0.4,0.4-1,0.4-1.6,0.4
				h-1.6v0.3h1.6L33.7,56.8L33.7,56.8z"/>
		</g>
		<g>
			<defs>
				<path id="SVGID_12_" d="M32.6,59c0-6.3,5.1-11.3,11.3-11.3c6.3,0,11.3,5.1,11.3,11.3s-5.1,11.3-11.3,11.3
					C37.7,70.4,32.6,65.3,32.6,59L32.6,59z"/>
			</defs>
			<clipPath id="SVGID_13_">
				<use xlink:href="#SVGID_12_"  style="overflow:visible;"/>
			</clipPath>
			<path class="st6" d="M45.4,54.4c-0.1,1.2-1,2.6-2.9,2.6c-2.1,0-2.2-1.5-2.2-3.2v-1.6c0-1.8,0.4-3,2.3-3c0.5,0,1.4,0.2,1.4,0.6
				c0,0.3-0.5,0.2-0.5,1c0,0.4,0.3,0.8,0.9,0.8c0.5,0,0.9-0.4,0.9-0.9c0-1.2-1.4-1.8-2.7-1.8c-2.2,0-4.1,2-4.1,4.5
				c0,2.1,1.6,3.9,4,3.9c1.9,0,3.1-1.5,3.2-2.9H45.4L45.4,54.4z"/>
		</g>
		<g>
			<defs>
				<path id="SVGID_14_" d="M32.6,59c0-6.3,5.1-11.3,11.3-11.3c6.3,0,11.3,5.1,11.3,11.3s-5.1,11.3-11.3,11.3
					C37.7,70.4,32.6,65.3,32.6,59L32.6,59z"/>
			</defs>
			<clipPath id="SVGID_15_">
				<use xlink:href="#SVGID_14_"  style="overflow:visible;"/>
			</clipPath>
			<path class="st7" d="M47.2,56.8h-1.5v0.3h4.6v-0.3h-1.5v-7.9c-0.4,0.4-1,0.4-1.6,0.4h-1.5v0.3h1.5V56.8L47.2,56.8z M47.1,45.5
				c0,0.5,0.4,1,1,1c0.5,0,1-0.4,1-1c0-0.5-0.4-1-1-1S47.1,45,47.1,45.5L47.1,45.5z"/>
		</g>
		<g>
			<defs>
				<path id="SVGID_16_" d="M32.6,59c0-6.3,5.1-11.3,11.3-11.3c6.3,0,11.3,5.1,11.3,11.3s-5.1,11.3-11.3,11.3
					C37.7,70.4,32.6,65.3,32.6,59L32.6,59z"/>
			</defs>
			<clipPath id="SVGID_17_">
				<use xlink:href="#SVGID_16_"  style="overflow:visible;"/>
			</clipPath>
			<path class="st8" d="M57.1,51.1c0-1.5-1.7-2.2-3.1-2.2c-1.9,0-2.9,1.1-2.9,2c0,0.6,0.3,1.1,0.8,1.1s0.9-0.3,0.9-0.8
				c0-0.9-0.6-0.6-0.6-1.1c0-0.7,1.3-0.9,1.8-0.9c0.7,0,1.6,0.2,1.6,1.1v2.3h-0.4c-2,0-4.8,0.5-4.8,2.7c0,1.3,0.9,2,2.4,2
				c1.3,0,2.1-0.3,2.7-1.2l0,0c0.1,0.7,1.6,0.3,1.6-0.1V51.1L57.1,51.1z M55.5,53v2.5c0,0.4-0.6,1.4-2,1.4c-1.2,0-1.4-0.8-1.4-1.9
				c0-2,1.7-2.1,3.1-2.1h0.3V53z"/>
		</g>
	</g>
	<g>
		<g>
			<path id="SVGID_5_" class="st9" d="M5.3,59c0-6.3,5.1-11.3,11.3-11.3c6.3,0,11.3,5.1,11.3,11.3c0,6.3-5.1,11.3-11.3,11.3
				C10.4,70.4,5.3,65.3,5.3,59L5.3,59z"/>
		</g>
		<g>
			<defs>
				<path id="SVGID_18_" d="M5.3,59c0-6.3,5.1-11.3,11.3-11.3c6.3,0,11.3,5.1,11.3,11.3c0,6.3-5.1,11.3-11.3,11.3
					C10.4,70.4,5.3,65.3,5.3,59L5.3,59z"/>
			</defs>
			<clipPath id="SVGID_19_">
				<use xlink:href="#SVGID_18_"  style="overflow:visible;"/>
			</clipPath>
			<path class="st10" d="M9.5,55.2c0,1.3-0.2,1.6-1.2,1.6H7.8v0.3h3.9v-0.3H11c-1,0-1.2-0.3-1.2-1.6V45l0,0l4.7,11.8h0.2l4.6-12l0,0
				v12h-1.8v0.3h5.4v-0.3h-1.7V44.1h1.7v-0.3h-3.6l-3.9,10.1l-4-10.1H7.7v0.3h1.7L9.5,55.2L9.5,55.2z"/>
		</g>
		<g>
			<defs>
				<path id="SVGID_20_" d="M5.3,59c0-6.3,5.1-11.3,11.3-11.3c6.3,0,11.3,5.1,11.3,11.3c0,6.3-5.1,11.3-11.3,11.3
					C10.4,70.4,5.3,65.3,5.3,59L5.3,59z"/>
			</defs>
			<clipPath id="SVGID_21_">
				<use xlink:href="#SVGID_20_"  style="overflow:visible;"/>
			</clipPath>
			<path class="st11" d="M29.3,51.1c0-1.5-1.7-2.2-3.1-2.2c-1.9,0-2.9,1.1-2.9,2c0,0.6,0.3,1.1,0.8,1.1s0.9-0.3,0.9-0.8
				c0-0.9-0.6-0.6-0.6-1.1c0-0.7,1.3-0.9,1.8-0.9c0.7,0,1.6,0.2,1.6,1.1v2.3h-0.4c-2,0-4.8,0.5-4.8,2.7c0,1.3,0.9,2,2.4,2
				c1.3,0,2.1-0.3,2.7-1.2l0,0c0.1,0.7,0.8,1.2,1.7,1.2c0.8,0,1.3-0.4,1.7-1l-0.2-0.2c-0.3,0.4-0.5,0.8-1,0.8s-0.6-0.5-0.6-0.8V51.1
				L29.3,51.1z M27.7,53v2.5c0,0.4-0.6,1.4-2,1.4c-1.2,0-1.4-0.8-1.4-1.9c0-2,1.7-2.1,3.1-2.1h0.3V53z"/>
		</g>
	</g>
</g>
<g>
	<path class="st4" d="M5,10h12c0.1,0.7-0.3,1.2-0.6,1.9l-2.9,6.2c-2.1,4.5-2.6,7.5-1.7,9.9c0.3,0.7,0.5,1.3,0.5,1.9
		c0,1.3-0.7,2.4-2.2,2.4c-1.7,0-2.3-1.3-2.3-2.8c0-1.6,5.9-13.9,6.8-16.3H8c-3.4,0-2.9-0.5-3.9,3.2H3.2L5,10z"/>
	<path class="st4" d="M23.6,24.6c0,2.4-0.2,6.9,3.2,6.9c3.4,0,3.2-4.5,3.2-6.9v-7.4c0-5.5-1.7-6.5-3.2-6.5s-3.2,1-3.2,6.5V24.6z
		 M26.7,10c4,0,7.3,5.7,7.3,11c0,7.6-4.2,11.3-7.3,11.3c-3.1,0-7.3-3.7-7.3-11.3C19.4,15.7,22.7,10,26.7,10"/>
	<path class="st4" d="M45.6,26.5c-1.6,0-3.8,0.2-3.8,2.3c0,1.2,0.5,2,1.7,2c0.9,0,1.6-0.7,1.9-1.5c0.2-0.4,0.2-0.9,0.2-1.4
		L45.6,26.5L45.6,26.5z M45.6,22.7c0-0.7-1.3-0.9-1.7-0.9c-1,0-2.2,0.5-1.8,1c0.2,0.2,0.4,0.8,0.4,1.3c0,0.7-0.7,1.2-1.3,1.2
		c-0.7,0-1.4-0.4-1.4-1.2c0-2,2.6-2.7,4.2-2.7c1.1,0,2.3,0.2,3.4,0.7c0.7,0.4,1,0.8,1,1.6v7c0,0.3,0.3,0.5,0.6,0.5
		c0.3,0,0.7-0.4,0.9-0.6l0.3,0.4c-0.7,0.8-1.4,1.4-2.5,1.4c-1.2,0-1.9-0.7-2-1.9c-0.9,1.2-2.4,1.9-3.8,1.9c-1.6,0-2.7-0.9-2.7-2.5
		c0-3.1,4.2-3.8,6.6-3.6v-3.6H45.6z"/>
	<path class="st4" d="M56,23.8L56,23.8c0.9-1.6,2.1-2.5,4-2.5c3.5,0,3.2,2.4,3.2,5v4.9h1.7v0.7h-6.1v-0.7h1.7v-4.7
		c0-2.4,0.3-4.2-1.5-4.2c-1.1,0-2.2,1.2-2.5,2.2c-0.3,0.9-0.3,2.1-0.3,3.3v3.5h1.7V32h-6.2v-0.7h1.8v-9.1h-1.8v-0.7
		c1.3,0.1,2.9-0.1,4.6-0.1v2.4H56z"/>
	<path class="st4" d="M68.9,18c-0.8,0-1.4-0.8-1.4-1.6c0-0.7,0.7-1.4,1.4-1.4c0.8,0,1.5,0.6,1.5,1.4C70.4,17.4,69.8,18,68.9,18
		 M65.8,31.8v-0.7h1.9V22h-1.9v-0.7c1.5,0.1,3.1-0.1,4.8-0.1V31h1.9v0.7h-6.7V31.8z"/>
	<polygon class="st4" points="81.2,21.4 81.2,22.1 83,22.1 80.2,28.6 77.6,22.1 79.3,22.1 79.3,21.4 73.3,21.4 73.3,22.1 74.6,22.1 
		78.9,32.2 79.6,32.2 83.8,22.1 85.2,22.1 85.2,21.4 	"/>
	<path class="st4" d="M93.7,25.3c0-1.8,0.4-3.6-1.9-3.6c-2.2,0-1.9,1.9-1.9,3.6H93.7z M89.8,26v2.1c0,1.8,0.1,3.6,2.3,3.6
		c1.9,0,3.3-1.4,3.9-3.1h0.7c-0.7,2.5-2.5,3.7-5,3.7c-2.9,0-4.9-2.8-4.9-5.4c0-2.9,2.4-5.5,5.2-5.5c2.4,0,4.7,1.7,4.7,4.3
		c0,0.6-0.2,0.5-0.7,0.5h-6.2V26z"/>
	<path class="st4" d="M102.9,24.2c0.8-1.4,1.8-3,3.7-3c1,0,2.1,0.5,2.1,1.7c0,1-0.7,1.5-1.7,1.5c-0.6,0-1.3-0.6-1.3-1.2
		c0-0.1,0-0.3,0.1-0.4c0.1-0.4,0.1-0.6-0.2-0.6c-0.5,0-0.8,0.3-1.1,0.6c-1,1-1.6,2.4-1.6,5.9v2.4h2.4v0.7h-6.7v-0.7h1.5V22h-1.7
		v-0.7c1.4,0.1,3-0.1,4.6-0.1L102.9,24.2L102.9,24.2z"/>
	<path class="st4" d="M110.9,31.8h-0.4V28h0.7c0.3,1.9,1.3,3.6,3.3,3.6c1.2,0,2.4-0.8,2.4-2.1c0-1.3-1.2-1.4-2.6-1.6
		c-2.7-0.4-3.7-1.5-3.7-3.5s1.4-3.2,3.3-3.2c0.9,0,1.8,0.3,2.6,0.8l0.4-0.7h0.4v3.1h-0.7c-0.2-1.4-1.3-2.7-2.8-2.7
		c-1,0-2.1,0.6-2.1,1.8c0,0.8,0.1,1.1,2.5,1.5s3.8,0.8,3.8,3.5c0,2.5-1.4,3.6-3.8,3.6c-0.9,0-2-0.5-2.6-1.1L110.9,31.8z"/>
	<path class="st4" d="M127.3,26.5c-1.6,0-3.8,0.2-3.8,2.3c0,1.2,0.5,2,1.7,2c0.9,0,1.6-0.7,1.9-1.5c0.2-0.4,0.2-0.9,0.2-1.4
		L127.3,26.5L127.3,26.5z M127.3,22.7c0-0.7-1.3-0.9-1.7-0.9c-1,0-2.2,0.5-1.8,1c0.2,0.2,0.4,0.8,0.4,1.3c0,0.7-0.7,1.2-1.3,1.2
		c-0.7,0-1.4-0.4-1.4-1.2c0-2,2.6-2.7,4.2-2.7c1.1,0,2.3,0.2,3.4,0.7c0.7,0.4,1,0.8,1,1.6v7c0,0.3,0.3,0.5,0.6,0.5
		c0.3,0,0.7-0.4,0.9-0.6l0.3,0.4c-0.7,0.8-1.4,1.4-2.5,1.4c-1.2,0-1.9-0.7-2-1.9c-0.9,1.2-2.4,1.9-3.8,1.9c-1.6,0-2.7-0.9-2.7-2.5
		c0-3.1,4.2-3.8,6.6-3.6v-3.6H127.3z"/>
	<path class="st4" d="M137.9,24.2c0.8-1.4,1.8-3,3.7-3c1,0,2.1,0.5,2.1,1.7c0,1-0.7,1.5-1.7,1.5c-0.6,0-1.3-0.6-1.3-1.2
		c0-0.1,0-0.3,0.1-0.4c0.1-0.4,0.1-0.6-0.2-0.6c-0.5,0-0.8,0.3-1.1,0.6c-1,1-1.6,2.4-1.6,5.9v2.4h2.4v0.7h-6.7v-0.7h1.5V22h-1.7
		v-0.7c1.4,0.1,3-0.1,4.6-0.1L137.9,24.2L137.9,24.2z"/>
	<path class="st4" d="M147.6,18c-0.8,0-1.4-0.8-1.4-1.6c0-0.7,0.7-1.4,1.4-1.4c0.8,0,1.5,0.6,1.5,1.4C149.2,17.4,148.5,18,147.6,18
		 M144.5,31.8v-0.7h1.9V22h-1.9v-0.7c1.5,0.1,3.1-0.1,4.8-0.1V31h1.9v0.7h-6.7V31.8z"/>
	<path class="st4" d="M158,21.8c-2.6,0-2.4,2-2.4,5c0,3.4,0.1,4.9,2.4,4.9s2.4-1.5,2.4-4.9C160.4,23.8,160.6,21.8,158,21.8
		 M158,21.2c3,0,5.5,2.6,5.5,5.5s-2.5,5.4-5.5,5.4s-5.5-2.5-5.5-5.4S155.1,21.2,158,21.2"/>
	<path class="st4" d="M79.2,6.1c0-0.6-0.1-0.6-1-0.6h-0.8V5.1h0.9c0.9,0,1.8-0.1,2.6-0.2v9.3h1.7v0.4h-5.1v-0.4h1.8V6.1H79.2z"/>
	<path class="st4" d="M87.2,5.2c-0.6,0-1.3,0.2-1.3,3c0,0.9,0,2.6,1.3,2.6c0.5,0,1.5-0.6,1.5-1c0.1-0.5,0.1-1,0.1-1.6
		C88.8,5.4,88,5.2,87.2,5.2 M84.7,14.5c2.2-0.3,3.7-1.8,4-4c-0.5,0.4-1.1,0.7-1.8,0.7c-1.5,0-2.8-1.2-2.8-3.1c0-1.7,1.5-3.2,3.2-3.2
		c2.2,0,3.3,2.1,3.3,4c0,3.2-2.8,5.7-5.9,5.9L84.7,14.5L84.7,14.5z"/>
	<path class="st4" d="M95,6.6v5.1h-3.3L95,6.6z M95.6,4.9l-4.4,6.7V12H95v2.2h-1.3v0.4h4.1v-0.4h-1.2V12h1.1v1.1h0.4v-2.7h-0.4v1.1
		h-1.1V4.8L95.6,4.9L95.6,4.9z"/>
	<path class="st4" d="M102.3,5.3c-1.2,0-1.2,1.2-1.2,2.1c0,1.7,0.4,2,1.2,2c1.2,0,1.2-1.1,1.2-2C103.5,5.5,103.2,5.3,102.3,5.3
		 M102.3,9.8c-1.3,0-1.5,1.4-1.5,2.4c0,1.1,0.1,2.3,1.5,2.3c1.1,0,1.5-0.6,1.5-2.3C103.8,10.9,103.6,9.8,102.3,9.8 M102.8,9.7
		c1.4,0.2,2.7,1.1,2.7,2.6c0,1.9-1.8,2.6-3.3,2.6c-1.9,0-3.2-1-3.2-2.6s1.5-2.3,2.7-2.6l0,0c-1.1-0.3-2.4-0.9-2.4-2.3
		c0-1.6,1.3-2.4,3-2.4c1.4,0,3,0.7,3,2.4C105.3,8.7,104,9.3,102.8,9.7L102.8,9.7z"/>
	<rect x="106.1" y="10.4" class="st4" width="7.5" height="0.8"/>
	<path class="st4" d="M120,11.8l-0.1,2.8H114v-1c1-1,3.7-3.2,4.1-4.4c0.1-0.4,0.2-0.9,0.2-1.5c0-1.1-0.6-2.2-1.8-2.2
		c-0.8,0-1.7,0.6-1.7,1.4c0,0.1,0.1,0.3,0.4,0.2c0.1,0,0.2-0.1,0.3-0.1c0.5,0,0.8,0.2,0.8,0.7c0,0.6-0.4,0.9-0.9,0.9
		c-0.7,0-1-0.6-1-1.2c0-1.5,1.4-2.5,2.9-2.5s2.9,0.9,2.9,2.5c0,0.8-0.3,1.6-1.5,2.7l-3.6,3.1h3.8c0.7,0,0.9-0.1,0.9-1.4H120z"/>
	<path class="st4" d="M123.3,11.4c0,1-0.1,3,1.4,3s1.4-2,1.4-3V8.1c0-2.4-0.8-2.9-1.4-2.9s-1.4,0.4-1.4,2.9V11.4z M124.7,4.9
		c1.8,0,3.3,2.5,3.3,4.9c0,3.4-1.9,5-3.3,5s-3.2-1.6-3.2-5C121.5,7.5,123,4.9,124.7,4.9"/>
	<path class="st4" d="M131.7,6.1c0-0.6-0.1-0.6-1-0.6h-0.8V5.1h0.9c0.9,0,1.8-0.1,2.6-0.2v9.3h1.7v0.4H130v-0.4h1.8V6.1H131.7z"/>
	<path class="st4" d="M139.8,5.3c-1.2,0-1.2,1.2-1.2,2.1c0,1.7,0.4,2,1.2,2c1.2,0,1.2-1.1,1.2-2C141,5.5,140.6,5.3,139.8,5.3
		 M139.8,9.8c-1.3,0-1.5,1.4-1.5,2.4c0,1.1,0.1,2.3,1.5,2.3c1.1,0,1.5-0.6,1.5-2.3C141.3,10.9,141.1,9.8,139.8,9.8 M140.3,9.7
		c1.4,0.2,2.7,1.1,2.7,2.6c0,1.9-1.8,2.6-3.3,2.6c-1.9,0-3.2-1-3.2-2.6s1.5-2.3,2.7-2.6l0,0c-1.1-0.3-2.4-0.9-2.4-2.3
		c0-1.6,1.3-2.4,3-2.4c1.4,0,3,0.7,3,2.4C142.8,8.7,141.5,9.3,140.3,9.7L140.3,9.7z"/>
</g>
</svg>
